<svg xmlns="http://www.w3.org/2000/svg" viewBox="0 0 512 512" width="100%" height="100%">
  <!-- Monochrome launcher icon mask scaled to safe-zone (66%) and centered -->
  <g transform="translate(86, 86) scale(0.66)" fill="#000000">
    <circle cx="256" cy="256" r="200" fill="none" stroke="#000000" stroke-width="32"/>
    <!-- Crescent Moon fill -->
    <path d="M 270 120 A 136 136 0 0 1 270 392 A 110 110 0 0 0 350 256 A 110 110 0 0 0 270 120 Z" />
    <!-- Leaf 1 -->
    <path d="M 256 256 C 210 200 170 190 140 210 C 120 224 116 260 146 296 C 176 332 216 320 256 256 Z" opacity="0.6"/>
    <!-- Leaf 2 -->
    <path d="M 256 256 C 270 200 310 190 340 210 C 360 224 364 260 334 296 C 304 332 264 320 256 256 Z"/>
  </g>
</svg>
